<svg width="127" height="36" viewBox="0 0 127 36" fill="none" xmlns="http://www.w3.org/2000/svg">
<circle cx="125.173" cy="1.9424" r="1.32692" transform="rotate(90 125.173 1.9424)" fill="#B2B7F8"/>
<circle cx="125.173" cy="17.8653" r="1.32692" transform="rotate(90 125.173 17.8653)" fill="#B2B7F8"/>
<circle cx="125.173" cy="33.7883" r="1.32692" transform="rotate(90 125.173 33.7883)" fill="#B2B7F8"/>
<circle cx="107.481" cy="1.9424" r="1.32692" transform="rotate(90 107.481 1.9424)" fill="#B2B7F8"/>
<circle cx="107.481" cy="17.8653" r="1.32692" transform="rotate(90 107.481 17.8653)" fill="#B2B7F8"/>
<circle cx="107.481" cy="33.7883" r="1.32692" transform="rotate(90 107.481 33.7883)" fill="#B2B7F8"/>
<circle cx="89.7883" cy="1.9424" r="1.32692" transform="rotate(90 89.7883 1.9424)" fill="#B2B7F8"/>
<circle cx="89.7883" cy="17.8653" r="1.32692" transform="rotate(90 89.7883 17.8653)" fill="#B2B7F8"/>
<circle cx="89.7883" cy="33.7883" r="1.32692" transform="rotate(90 89.7883 33.7883)" fill="#B2B7F8"/>
<circle cx="72.0959" cy="1.9424" r="1.32692" transform="rotate(90 72.0959 1.9424)" fill="#B2B7F8"/>
<circle cx="72.0959" cy="17.8653" r="1.32692" transform="rotate(90 72.0959 17.8653)" fill="#B2B7F8"/>
<circle cx="72.0959" cy="33.7883" r="1.32692" transform="rotate(90 72.0959 33.7883)" fill="#B2B7F8"/>
<circle cx="54.4035" cy="1.9424" r="1.32692" transform="rotate(90 54.4035 1.9424)" fill="#B2B7F8"/>
<circle cx="54.4035" cy="17.8653" r="1.32692" transform="rotate(90 54.4035 17.8653)" fill="#B2B7F8"/>
<circle cx="54.4035" cy="33.7883" r="1.32692" transform="rotate(90 54.4035 33.7883)" fill="#B2B7F8"/>
<circle cx="36.7112" cy="1.9424" r="1.32692" transform="rotate(90 36.7112 1.9424)" fill="#B2B7F8"/>
<circle cx="36.7112" cy="17.8653" r="1.32692" transform="rotate(90 36.7112 17.8653)" fill="#B2B7F8"/>
<circle cx="36.7112" cy="33.7883" r="1.32692" transform="rotate(90 36.7112 33.7883)" fill="#B2B7F8"/>
<circle cx="19.0193" cy="1.9424" r="1.32692" transform="rotate(90 19.0193 1.9424)" fill="#B2B7F8"/>
<circle cx="19.0193" cy="17.8653" r="1.32692" transform="rotate(90 19.0193 17.8653)" fill="#B2B7F8"/>
<circle cx="19.0193" cy="33.7883" r="1.32692" transform="rotate(90 19.0193 33.7883)" fill="#B2B7F8"/>
<circle cx="1.32737" cy="1.9424" r="1.32692" transform="rotate(90 1.32737 1.9424)" fill="#B2B7F8"/>
<circle cx="1.32737" cy="17.8653" r="1.32692" transform="rotate(90 1.32737 17.8653)" fill="#B2B7F8"/>
<circle cx="1.32737" cy="33.7883" r="1.32692" transform="rotate(90 1.32737 33.7883)" fill="#B2B7F8"/>
</svg>
