<svg width="14" height="14" viewBox="0 0 14 14" fill="none" xmlns="http://www.w3.org/2000/svg">
<path d="M7 12.25C9.8995 12.25 12.25 9.8995 12.25 7C12.25 4.1005 9.8995 1.75 7 1.75C4.1005 1.75 1.75 4.1005 1.75 7C1.75 9.8995 4.1005 12.25 7 12.25Z" fill="#C6C8D9"/>
<path fill-rule="evenodd" clip-rule="evenodd" d="M7 2.1875C4.34213 2.1875 2.1875 4.34213 2.1875 7C2.1875 9.65787 4.34213 11.8125 7 11.8125C9.65787 11.8125 11.8125 9.65787 11.8125 7C11.8125 4.34213 9.65787 2.1875 7 2.1875ZM1.3125 7C1.3125 3.85888 3.85888 1.3125 7 1.3125C10.1411 1.3125 12.6875 3.85888 12.6875 7C12.6875 10.1411 10.1411 12.6875 7 12.6875C3.85888 12.6875 1.3125 10.1411 1.3125 7Z" fill="#C6C8D9"/>
<path fill-rule="evenodd" clip-rule="evenodd" d="M7 9.47913C7.24162 9.47913 7.4375 9.675 7.4375 9.91663V9.92246C7.4375 10.1641 7.24162 10.36 7 10.36C6.75838 10.36 6.5625 10.1641 6.5625 9.92246V9.91663C6.5625 9.675 6.75838 9.47913 7 9.47913Z" fill="white"/>
<path fill-rule="evenodd" clip-rule="evenodd" d="M6.17514 3.83184C6.44622 3.6977 6.74475 3.62832 7.04721 3.62916C7.34966 3.63 7.6478 3.70103 7.91814 3.83667C8.18848 3.97231 8.42364 4.16885 8.60512 4.41082C8.7866 4.65278 8.90943 4.93357 8.96395 5.23108C9.01846 5.52858 9.00318 5.83468 8.9193 6.12528C8.83541 6.41587 8.68522 6.68303 8.48055 6.90572C8.27587 7.1284 8.0223 7.30054 7.73979 7.40857L7.72865 7.41266C7.63919 7.44412 7.56237 7.5038 7.50976 7.5827C7.45716 7.66161 7.43161 7.75548 7.43698 7.85016C7.45067 8.0914 7.2662 8.29805 7.02496 8.31173C6.78372 8.32541 6.57707 8.14094 6.56339 7.89971C6.54728 7.61566 6.6239 7.33407 6.78172 7.09734C6.93823 6.86257 7.1662 6.68454 7.43176 6.58956C7.58596 6.5298 7.72439 6.43539 7.83633 6.3136C7.94936 6.19062 8.0323 6.04309 8.07862 5.88261C8.12494 5.72213 8.13338 5.55309 8.10328 5.3888C8.07317 5.2245 8.00534 5.06944 7.90512 4.93582C7.8049 4.80219 7.67503 4.69366 7.52574 4.61875C7.37645 4.54385 7.21181 4.50462 7.04478 4.50415C6.87775 4.50369 6.71289 4.54201 6.56319 4.61608C6.41348 4.69016 6.28302 4.79797 6.18206 4.93104C6.03601 5.12353 5.76157 5.16118 5.56908 5.01514C5.37659 4.86909 5.33894 4.59466 5.48498 4.40216C5.6678 4.16121 5.90405 3.96597 6.17514 3.83184Z" fill="white"/>
</svg>
