<svg width="28" height="27" viewBox="0 0 28 27" fill="none" xmlns="http://www.w3.org/2000/svg">
<path d="M8.11565 11.7972C8.18613 11.8161 8.25964 11.821 8.33198 11.8115C8.40432 11.8019 8.47408 11.7783 8.53728 11.7418C8.60047 11.7053 8.65586 11.6568 8.70029 11.5989C8.74472 11.541 8.77731 11.4749 8.79621 11.4045C8.8151 11.334 8.81993 11.2605 8.81042 11.1881C8.80091 11.1158 8.77724 11.046 8.74077 10.9828C8.70429 10.9197 8.65573 10.8643 8.59785 10.8198C8.53997 10.7754 8.47391 10.7428 8.40343 10.7239L6.25676 10.1489C6.11451 10.1109 5.96298 10.1309 5.83547 10.2046C5.70797 10.2782 5.61492 10.3995 5.57677 10.5417L5.00065 12.6889C4.96249 12.8312 4.98244 12.9829 5.0561 13.1105C5.09257 13.1737 5.14113 13.2291 5.19901 13.2736C5.25689 13.318 5.32295 13.3506 5.39343 13.3695C5.53576 13.4076 5.68743 13.3877 5.81506 13.314C5.94268 13.2404 6.03582 13.119 6.07398 12.9767L6.2851 12.1878C8.18343 15.4922 10.1323 16.1906 14.4534 14.75C17.5318 13.7239 19.9523 14.7256 21.859 17.8456C21.8966 17.9086 21.9464 17.9636 22.0054 18.0073C22.0644 18.051 22.1314 18.0825 22.2027 18.1001C22.274 18.1177 22.348 18.1211 22.4206 18.1099C22.4932 18.0987 22.5628 18.0732 22.6255 18.035C22.6881 17.9967 22.7426 17.9464 22.7857 17.887C22.8288 17.8276 22.8597 17.7602 22.8766 17.6888C22.8935 17.6173 22.8961 17.5432 22.8842 17.4708C22.8723 17.3983 22.8462 17.329 22.8073 17.2667C20.6407 13.72 17.6907 12.5 14.1018 13.6956C10.2929 14.9656 8.84343 14.4856 7.19954 11.5528L8.11565 11.7972ZM25.6673 0.888916H2.33399C1.89196 0.888916 1.46803 1.06451 1.15547 1.37707C0.842913 1.68963 0.66732 2.11356 0.66732 2.55558V22.5556C0.66732 22.9976 0.842913 23.4215 1.15547 23.7341C1.46803 24.0467 1.89196 24.2222 2.33399 24.2222H25.6673C26.1093 24.2222 26.5333 24.0467 26.8458 23.7341C27.1584 23.4215 27.334 22.9976 27.334 22.5556V2.55558C27.334 2.11356 27.1584 1.68963 26.8458 1.37707C26.5333 1.06451 26.1093 0.888916 25.6673 0.888916ZM25.6673 2.00003C25.8147 2.00003 25.956 2.05856 26.0602 2.16275C26.1643 2.26693 26.2229 2.40824 26.2229 2.55558V22.5556C26.2229 22.7029 26.1643 22.8442 26.0602 22.9484C25.956 23.0526 25.8147 23.1111 25.6673 23.1111H2.33399C2.18664 23.1111 2.04534 23.0526 1.94115 22.9484C1.83696 22.8442 1.77843 22.7029 1.77843 22.5556V2.55558C1.77843 2.40824 1.83696 2.26693 1.94115 2.16275C2.04534 2.05856 2.18664 2.00003 2.33399 2.00003H25.6673ZM24.5562 25.3334H19.0007C18.8533 25.3334 18.712 25.3919 18.6078 25.4961C18.5036 25.6003 18.4451 25.7416 18.4451 25.8889C18.4451 26.0363 18.5036 26.1776 18.6078 26.2818C18.712 26.3859 18.8533 26.4445 19.0007 26.4445H24.5562C24.7035 26.4445 24.8449 26.3859 24.949 26.2818C25.0532 26.1776 25.1118 26.0363 25.1118 25.8889C25.1118 25.7416 25.0532 25.6003 24.949 25.4961C24.8449 25.3919 24.7035 25.3334 24.5562 25.3334ZM9.00065 25.3334H3.4451C3.29775 25.3334 3.15645 25.3919 3.05226 25.4961C2.94807 25.6003 2.88954 25.7416 2.88954 25.8889C2.88954 26.0363 2.94807 26.1776 3.05226 26.2818C3.15645 26.3859 3.29775 26.4445 3.4451 26.4445H9.00065C9.14799 26.4445 9.2893 26.3859 9.39349 26.2818C9.49768 26.1776 9.55621 26.0363 9.55621 25.8889C9.55621 25.7416 9.49768 25.6003 9.39349 25.4961C9.2893 25.3919 9.14799 25.3334 9.00065 25.3334ZM24.5562 3.11114H3.4451C3.29775 3.11114 3.15645 3.16967 3.05226 3.27386C2.94807 3.37804 2.88954 3.51935 2.88954 3.66669C2.88954 3.81404 2.94807 3.95534 3.05226 4.05953C3.15645 4.16372 3.29775 4.22225 3.4451 4.22225H24.5562C24.7035 4.22225 24.8449 4.16372 24.949 4.05953C25.0532 3.95534 25.1118 3.81404 25.1118 3.66669C25.1118 3.51935 25.0532 3.37804 24.949 3.27386C24.8449 3.16967 24.7035 3.11114 24.5562 3.11114Z" fill="#BFBFBF"/>
</svg>
