<svg width="16" height="12" viewBox="0 0 16 12" fill="none" xmlns="http://www.w3.org/2000/svg">
<path fill-rule="evenodd" clip-rule="evenodd" d="M8.00016 5.16671C7.53993 5.16671 7.16683 5.5398 7.16683 6.00004C7.16683 6.46028 7.53993 6.83337 8.00016 6.83337C8.4604 6.83337 8.8335 6.46028 8.8335 6.00004C8.8335 5.5398 8.4604 5.16671 8.00016 5.16671ZM6.16683 6.00004C6.16683 4.98752 6.98764 4.16671 8.00016 4.16671C9.01268 4.16671 9.8335 4.98752 9.8335 6.00004C9.8335 7.01256 9.01268 7.83337 8.00016 7.83337C6.98764 7.83337 6.16683 7.01256 6.16683 6.00004Z" fill="#8C8C8C"/>
<path fill-rule="evenodd" clip-rule="evenodd" d="M1.91236 6.00004C3.60755 8.84516 5.64103 10.1667 8.00016 10.1667C10.3593 10.1667 12.3928 8.84516 14.088 6.00004C12.3928 3.15492 10.3593 1.83337 8.00016 1.83337C5.64103 1.83337 3.60755 3.15492 1.91236 6.00004ZM0.89938 5.75196C2.7316 2.54575 5.09349 0.833374 8.00016 0.833374C10.9068 0.833374 13.2687 2.54575 15.1009 5.75196C15.1888 5.90568 15.1888 6.0944 15.1009 6.24812C13.2687 9.45433 10.9068 11.1667 8.00016 11.1667C5.09349 11.1667 2.7316 9.45433 0.89938 6.24812C0.811535 6.0944 0.811535 5.90568 0.89938 5.75196Z" fill="#8C8C8C"/>
</svg>
