<svg width="30" height="25" viewBox="0 0 30 25" fill="none" xmlns="http://www.w3.org/2000/svg">
<path fill-rule="evenodd" clip-rule="evenodd" d="M16.8475 4.06716L14.8797 6.03494C14.7748 6.13683 14.6341 6.19355 14.4879 6.19293C14.3417 6.1923 14.2015 6.13439 14.0975 6.0316C14.0454 5.98075 14.0039 5.92004 13.9755 5.85302C13.9471 5.78599 13.9323 5.71399 13.932 5.64119C13.9317 5.5684 13.9459 5.49627 13.9737 5.429C14.0015 5.36173 14.0425 5.30068 14.0941 5.24938L18.4186 0.924381C19.2836 0.0593811 20.6936 0.0566041 21.5541 0.91716L24.7114 4.07438C25.5758 4.93883 25.5658 6.34827 24.7041 7.20994L11.0858 20.8283L6.31636 21.5094C4.9758 21.701 3.92747 20.6533 4.11913 19.3094L4.80024 14.5427L11.7441 7.59994C11.849 7.49805 11.9897 7.44133 12.1359 7.44195C12.2822 7.44257 12.4223 7.50049 12.5264 7.60327C12.5784 7.65412 12.6199 7.71483 12.6483 7.78186C12.6767 7.84888 12.6915 7.92089 12.6918 7.99368C12.6921 8.06648 12.6779 8.13861 12.6501 8.20588C12.6223 8.27314 12.5813 8.3342 12.5297 8.38549L6.63358 14.281L8.59802 16.2449L18.8114 6.0316L16.8475 4.06716ZM17.633 3.2816L22.3469 7.99549L23.9186 6.42438C24.3464 5.99605 24.3558 5.28994 23.9258 4.85994L20.7686 1.70272C20.3441 1.27883 19.6386 1.27605 19.2047 1.70994L17.633 3.2816ZM21.5614 8.7816L19.5975 6.81716L9.38358 17.031L11.3475 18.9949L21.5614 8.78105V8.7816ZM5.84802 15.0666L5.21913 19.4666C5.13191 20.0783 5.55358 20.496 6.15913 20.4099L10.5619 19.7805L5.84802 15.0666ZM1.11024 24.2222C0.962901 24.2222 0.821592 24.1636 0.717406 24.0594C0.613219 23.9553 0.554688 23.8139 0.554688 23.6666C0.554688 23.5193 0.613219 23.378 0.717406 23.2738C0.821592 23.1696 0.962901 23.111 1.11024 23.111H28.8936C29.0409 23.111 29.1822 23.1696 29.2864 23.2738C29.3906 23.378 29.4491 23.5193 29.4491 23.6666C29.4491 23.8139 29.3906 23.9553 29.2864 24.0594C29.1822 24.1636 29.0409 24.2222 28.8936 24.2222H1.11024Z" fill="#BFBFBF"/>
</svg>
