<svg width="50" height="37" viewBox="0 0 50 37" fill="none" xmlns="http://www.w3.org/2000/svg">
<path d="M-28 4.89089C-23.2347 1.2499 -20.0601 0.828591 -16.1825 4.89089C-12.3048 8.95319 -8.62336 7.3879 -5.28679 4.52157C-1.66345 1.40889 2.33323 1.8683 5.05356 4.89089C8.37724 8.58387 14.0661 7.80237 16.6864 4.89089C20.0101 1.19791 23.5184 1.19791 27.0268 4.52157C30.4443 7.75922 35.517 7.87394 38.475 4.52157C41.2447 1.38256 45.307 1.38256 49 4.52157" stroke="#808DFB" stroke-width="3"/>
<path d="M-28 32.2189C-23.2347 28.5779 -20.0601 28.1566 -16.1825 32.2189C-12.3048 36.2812 -8.62336 34.7159 -5.28679 31.8496C-1.66345 28.7369 2.33323 29.1963 5.05356 32.2189C8.37724 35.9119 14.0661 35.1304 16.6864 32.2189C20.0101 28.5259 23.5184 28.5259 27.0268 31.8496C30.4443 35.0872 35.517 35.2019 38.475 31.8496C41.2447 28.7106 45.307 28.7106 49 31.8496" stroke="#808DFB" stroke-width="3"/>
<path d="M-28 18.555C-23.2347 14.914 -20.0601 14.4927 -16.1825 18.555C-12.3048 22.6172 -8.62336 21.052 -5.28679 18.1856C-1.66345 15.0729 2.33323 15.5324 5.05356 18.555C8.37724 22.2479 14.0661 21.4664 16.6864 18.555C20.0101 14.862 23.5184 14.862 27.0268 18.1856C30.4443 21.4233 35.517 21.538 38.475 18.1856C41.2447 15.0466 45.307 15.0466 49 18.1856" stroke="#808DFB" stroke-width="3"/>
</svg>
