<svg width="1162" height="300" viewBox="0 0 1162 300" fill="none" xmlns="http://www.w3.org/2000/svg">
<path fill-rule="evenodd" clip-rule="evenodd" d="M1162 124.461L1113.58 109.832C1065.17 95.2042 968.333 65.9477 871.5 87.8901C774.667 109.832 677.833 182.974 581 197.602C484.167 212.23 387.333 168.346 290.5 153.717C193.667 139.089 96.8334 153.717 48.4167 161.031L0 168.346V300H48.4167C96.8334 300 193.667 300 290.5 300C387.333 300 484.167 300 581 300C677.833 300 774.667 300 871.5 300C968.333 300 1065.17 300 1113.58 300H1162V124.461Z" fill="#E8EEF6" fill-opacity="0.5"/>
<path fill-rule="evenodd" clip-rule="evenodd" d="M0 0L28 33.4395C55 66.879 111 133.758 166 133.758C221 133.758 277 66.879 332 66.879C387 66.879 443 133.758 498 155.732C553 177.707 609 155.732 664 128.025C719 100.318 775 66.879 830 61.1465C885 55.414 941 77.3885 996 116.561C1051 155.732 1107 211.146 1134 238.854L1162 266.561V300H1134C1107 300 1051 300 996 300C941 300 885 300 830 300C775 300 719 300 664 300C609 300 553 300 498 300C443 300 387 300 332 300C277 300 221 300 166 300C111 300 55 300 28 300H0V0Z" fill="#BFC6FD" fill-opacity="0.5"/>
</svg>
